<?xml version="1.0" encoding="utf-8"?>
<!-- Generator: Adobe Illustrator 25.4.1, SVG Export Plug-In . SVG Version: 6.00 Build 0)  -->
<svg version="1.1" id="Capa_1" xmlns="http://www.w3.org/2000/svg" xmlns:xlink="http://www.w3.org/1999/xlink" x="0px" y="0px"
	 viewBox="0 0 190.5 190.5" style="enable-background:new 0 0 190.5 190.5;" xml:space="preserve">
<style type="text/css">
	.st0{fill:#EDEDED;}
</style>
<path class="st0" d="M144.3,118.4v34.7c0,1.1-0.7,2.1-1.8,2.5c-0.4,0.1-9.6,3.3-28.5,3.3c-19,0-33.3-3.3-37-5.5
	c-1.2-0.7-3.1-0.8-6.2-1c-2.6-0.1-5.7-0.3-9.9-0.9c-3.9-0.6-6.4-1.7-7.8-3.7c-1.8-2.6-1.1-5.5-0.5-8.4c0.2-1.1,0.5-2.3,0.6-3.4
	c0.3-2.4-0.7-5-2.1-8.7c-1.6-4.2-3.6-9.5-4.6-17c-1-7.7,0.7-26.9,2.6-42.4c1.1-8.5,2.3-16.4,3.4-22.4c2.1-10.9,3.1-11.6,4.1-12.3
	c1.2-0.8,3.6-1.6,12.3-1.6c6.4,0,12.9,0.4,13.2,0.4c0.7,0,1.4,0.4,1.9,1c0.3,0.3,6.8,8.5,6.8,17.9c0,8.5-11.5,13.4-16.6,15.1
	c0.6,5.2,2.7,19,7.8,28.4c4.6,8.5,5.3,18.1,5.2,23.9c5.4-3.1,15.1-7.6,25.1-7.6c12.1,0,24,3.4,28.4,4.7c0.5,0.1,1,0.3,1.3,0.3
	C143.3,116,144.3,117.1,144.3,118.4z"/>
</svg>
