<?xml version="1.0" encoding="utf-8"?>
<!-- Generator: Adobe Illustrator 25.4.1, SVG Export Plug-In . SVG Version: 6.00 Build 0)  -->
<svg version="1.1" id="Capa_1" xmlns="http://www.w3.org/2000/svg" xmlns:xlink="http://www.w3.org/1999/xlink" x="0px" y="0px"
	 viewBox="0 0 512 512" style="enable-background:new 0 0 512 512;" xml:space="preserve">
<style type="text/css">
	.st0{fill:#FFFFFF;}
</style>
<g>
	<g>
		<path class="st0" d="M408.8,399.2c0-16.8-13.7-30.5-30.5-30.5h-18l-95.2-47.6c-11.3-5.7-17.9-17.5-16.8-30.1l17.8-197.7
			c0.5-6-4.2-11.1-10.1-11.1H113.5c-5.6,0-10.2,4.6-10.2,10.2v41.7c0,27.5,5.5,44.1,10.8,60.1c11.9,36.1,16,74.1-5.7,140.6
			c-18.3,56.3,14.3,95,54.6,95h0.1c9.2,0,18.4-2.2,26.6-6.3c16.3-8.1,35.7-8,51.9,0.2c7.7,4,16.4,6.1,25.1,6.1h111.6
			C395.1,429.7,408.8,416,408.8,399.2L408.8,399.2z M195,327.9c-5.6,0-10.2,4.6-10.2,10.2c0,5.6-4.6,10.2-10.2,10.2
			c-5.6,0-10.2-4.6-10.2-10.2c0-16.8,13.7-30.5,30.5-30.5c5.6,0,10.2,4.6,10.2,10.2C205.2,323.4,200.7,327.9,195,327.9z"/>
	</g>
</g>
</svg>
