<?xml version="1.0" encoding="utf-8"?>
<!-- Generator: Adobe Illustrator 25.4.1, SVG Export Plug-In . SVG Version: 6.00 Build 0)  -->
<svg version="1.1" id="Layer_1" xmlns="http://www.w3.org/2000/svg" xmlns:xlink="http://www.w3.org/1999/xlink" x="0px" y="0px"
	 viewBox="0 0 456 456" style="enable-background:new 0 0 456 456;" xml:space="preserve">
<style type="text/css">
	.st0{fill:#FFFFFF;}
</style>
<path class="st0" d="M182.7,409h77.8c21.7,0,41.8-12.6,52.4-33l67.3-129.3l-3.8-3.1c-0.1-0.1-0.1-0.1-0.2-0.2
	c-5.8-5.5-13.7-8.3-21.7-7.8c-8.2,0.6-15.7,4.6-20.9,11l-19.4,23.6c-1.5,1.8-4,2.5-6.2,1.7c-2.2-0.8-3.7-2.9-3.7-5.2l-0.1-162.6
	c0-11.1-8.3-20.1-18.4-20.1c-9.9,0-18,8.6-18.4,19.3c0,16.4,0,34.3,0,51.3c0,38.5,0,71.7,0,74.9c0,1.5-0.6,2.9-1.6,3.9
	c-1,1-2.5,1.6-3.9,1.6h0c-1.5,0-2.9-0.6-3.9-1.6c-1-1-1.6-2.4-1.6-3.9c0-3.2,0-36.4,0-74.9c0-16.6,0-34,0-50.1c0-0.1,0-0.3,0-0.4
	c0-0.3,0-0.6,0-0.9c0-13.5,0-26,0-36.2c0-11.1-8.3-20-18.4-20h-0.6c-10.1,0-18.6,8.9-18.6,20v162.7c0,3.1-2.5,5.6-5.6,5.6
	c-3.1,0-5.6-2.5-5.6-5.6V88c0-11.1-8.1-20.1-18.2-20.1c-10.2,0-18.3,9-18.3,20.1v141.7c0,3.1-2.5,5.6-5.6,5.6
	c-3.1,0-5.6-2.5-5.6-5.6v-83.5c0-11.1-8.4-19.8-18.6-19.8h-0.5c-10.1,0-18.4,8.8-18.4,19.8c-0.1,45.6,0,126.1,0,198.1
	C122.6,380,149.6,409,182.7,409z"/>
</svg>
