<?xml version="1.0" encoding="utf-8"?>
<!-- Generator: Adobe Illustrator 25.4.1, SVG Export Plug-In . SVG Version: 6.00 Build 0)  -->
<svg version="1.1" id="Capa_1" xmlns="http://www.w3.org/2000/svg" xmlns:xlink="http://www.w3.org/1999/xlink" x="0px" y="0px"
	 viewBox="0 0 512 512" style="enable-background:new 0 0 512 512;" xml:space="preserve">
<style type="text/css">
	.st0{fill:#FFFFFF;}
</style>
<g>
	<g>
		<path class="st0" d="M272.9,75.2c-74.8,0-135.6,60.8-135.6,135.6v19.9l-32.7,65.4c-1.8,3.5-1.6,7.7,0.5,11s5.7,5.4,9.6,5.4h22.6
			v54.4c0,6.6,2.9,12.9,8,17.2c5.1,4.3,11.7,6.2,18.3,5.1l41.5-6.9v43.2c0,3.3,1.4,6.5,4,8.6c2.1,1.7,4.6,2.7,7.3,2.7
			c0.6,0,1.2,0,1.9-0.2L353.9,414c5.4-0.9,9.4-5.6,9.4-11.1v-69.6c0-15.7,7.7-28.3,14.2-36.2c20-24.1,31-54.8,31-86.3
			C408.6,136,347.7,75.2,272.9,75.2z"/>
	</g>
</g>
</svg>
