<?xml version="1.0" encoding="utf-8"?>
<!-- Generator: Adobe Illustrator 25.4.1, SVG Export Plug-In . SVG Version: 6.00 Build 0)  -->
<svg version="1.1" id="Capa_1" xmlns="http://www.w3.org/2000/svg" xmlns:xlink="http://www.w3.org/1999/xlink" x="0px" y="0px"
	 viewBox="0 0 201.2 201.2" style="enable-background:new 0 0 201.2 201.2;" xml:space="preserve">
<style type="text/css">
	.st0{fill:#EDEDED;}
</style>
<path class="st0" d="M154.6,144.3c-9.4-2-24.8-7.4-26.6-13.3c-1.7-5.5-1.6-29.6-1.5-47.2c0.1-16.2,0.1-22.5-0.5-24.4
	c-1.8-6.1-4.9-9.3-18.5-12.4c-7.8-1.8-23.1-4-34.6-5.5c-3.3-0.5-6.7-0.8-10.1-1c-8.4-0.5-16.8-0.3-25.1,0.7
	c-1.3,0.2-2.3,1.2-2.4,2.5L32.7,86c-0.1,1.4,0.9,2.7,2.3,2.9c0.1,0,2.2,0.3,6.1,0.6c5.1,0.3,13.5,0.5,24.2-0.4
	c12-1,22.3-4.5,28.4-7.1c-0.7,3.5-1.1,8,0,12.5c0.7,2.9,2.2,6.6,3.8,10.5c3,7.5,6.7,16.9,6.1,23.2c-0.3,3.5-2.4,6.9-4.4,10.2
	c-3.3,5.5-7.3,12.3,0,17.7c2.2,1.6,4.4,2.5,6.8,2.6c2.8,0.2,5.4-0.7,7.8-1.5c2.3-0.8,4.5-1.5,6.8-1.4c4.2,0.3,8.1,1.3,11.5,2.2
	c2.4,0.6,4.6,1.2,6.8,1.5c0.3,0,0.5,0.1,0.8,0.1c2.6,0.2,5.6-0.5,8.5-1.1c2.2-0.5,4.4-0.9,5.7-0.8c0.3,0,0.4,0.1,0.5,0.1
	c0.8,0.3,1.6,0.5,2.5,0.5c4.2,0.3,8.9-2.3,9.2-7C166.6,145.6,157.7,144.5,154.6,144.3z"/>
</svg>
