<?xml version="1.0" encoding="utf-8"?>
<!-- Generator: Adobe Illustrator 25.4.1, SVG Export Plug-In . SVG Version: 6.00 Build 0)  -->
<svg version="1.1" id="Layer_1" xmlns="http://www.w3.org/2000/svg" xmlns:xlink="http://www.w3.org/1999/xlink" x="0px" y="0px"
	 viewBox="0 0 512 512" style="enable-background:new 0 0 512 512;" xml:space="preserve">
<style type="text/css">
	.st0{fill:#EDEDED;}
</style>
<g>
	<path class="st0" d="M261.6,437h75.2c-2-19.4-5.3-39.3-8.2-57.1c-3.4-20.4-6.2-37.9-6.5-49.9c-0.2-10.8,4.4-39,8-48.6
		c8-21.3,19.9-48,19.9-74.8c0-5.8,7.8-7.8,10.6-2.7c10.4,19.4,14.3,48.5,17.4,71.8c3.2,23.5,4.2,19.8,1.6,43.8
		c-0.7,6.5-1.4,13.2-1.2,17.3c1.8,34.4,11.2,84.8,14.1,100.1h27.8c1.2-17.2,4.6-73,3-112.4c-1.6-40.7-11-63.7-11.4-72.5
		c-0.5-12.4-1.5-24.7-2.2-32.8c0,0,0,0,0,0c-0.7-8.3-3.6-40.7-3.4-46.2c0.7-16.8,0.5-35.7-11-46.4c-13-12.1-45.3-15.8-66.6-18.2
		c-11.8-1.3-20.3-2.3-24.9-4.3c-11.1-4.8-22.4-15.7-23.9-29.2h-48.4c-1.5,13-11.9,24-23.9,29.2c-2.9,1.2-31.2,5-39.5,6
		c-17.2,2.2-41.3,6.4-52,16.4c-11.4,10.7-11.7,29.5-11,46.4c0.3,7-0.8,18.2-2.1,32.4c-1.3,14.1-2.8,30.2-3.4,46.6
		c-0.3,8.8-9.8,31.8-11.4,72.5c-1.5,39.4,1.9,95.2,3,112.4h27.8c2.9-15.2,12.3-65.7,14.1-100.1c0.2-4-0.5-10.8-1.2-17.3
		c-2.5-24-1.5-20.4,1.6-43.8c3.1-23.3,7-52.4,17.4-71.8c2.8-5.1,10.6-3.2,10.6,2.7c0,27.1,12.2,54.2,19.9,74.8
		c3.6,9.6,8.3,37.8,8,48.6c-0.2,12-7,53.4-10.1,72.1c-2.1,13.5-3.6,24.8-4.6,34.9h75.2"/>
</g>
</svg>
