<?xml version="1.0" encoding="utf-8"?>
<!-- Generator: Adobe Illustrator 25.4.1, SVG Export Plug-In . SVG Version: 6.00 Build 0)  -->
<svg version="1.1" xmlns="http://www.w3.org/2000/svg" xmlns:xlink="http://www.w3.org/1999/xlink" x="0px" y="0px"
	 viewBox="0 0 1000 1000" style="enable-background:new 0 0 1000 1000;" xml:space="preserve">
<style type="text/css">
	.st0{display:none;}
	.st1{display:inline;fill:#111522;}
	.st2{fill:#F0EFEF;}
</style>
<g id="Layer_1" class="st0">
	<rect class="st1" width="1000" height="1000"/>
</g>
<g id="Layer_2">
	<g>
		<circle class="st2" cx="439.92" cy="421.73" r="23.27"/>
		<circle class="st2" cx="539.39" cy="338.27" r="23.27"/>
		<path class="st2" d="M648.99,109.5l21.55-51.76c-67.12-25.86-140.46-36.17-212.57-29.82c-95.55,8.41-185.31,45.26-259.59,106.56
			c-1.02,0.84-2.04,1.69-3.05,2.54C99.54,217.4,40.22,330.27,28.3,454.82C16.25,580.83,53.98,703.99,134.55,801.61
			c80.57,97.63,194.34,158.03,320.34,170.09c126.01,12.06,249.16-25.67,346.79-106.25c1.01-0.84,2.03-1.68,3.03-2.52
			c72.67-60.97,124.82-141.25,150.82-232.14c20.64-72.16,23.94-148.74,9.61-221.95l-54.65,12.22
			c13.48,70.43,8.63,143.43-14.11,211.59l0,0c-24.71,74.05-69.81,139.65-130.32,189.64c-86.1,71.06-194.71,104.34-305.84,93.7
			c-111.12-10.63-211.46-63.9-282.52-150c-71.06-86.1-104.34-194.71-93.7-305.84C94.53,350.2,146.87,250.74,231.5,179.73
			c0.83-0.7,1.67-1.4,2.51-2.09c60.54-49.96,133.47-81.77,210.92-92C513.73,76.56,584.13,84.81,648.99,109.5z"/>
		<path class="st2" d="M535.23,728.43c-40.64,6-82.25,1.13-120.34-14.1l-7.72-3.09l-22.21,53.35l7.92,3.19
			c43.64,17.58,91.58,24.28,138.64,19.36c57.48-6,111.35-28.88,155.77-66.15l1.84-1.56c58.86-50.21,94.65-120.35,100.77-197.48
			c6.11-77.13-18.17-152.03-68.39-210.9c-50.22-58.87-120.35-94.65-197.48-100.77c-76.25-6.04-150.49,17.69-209.05,66.82l-1.85,1.56
			c-44.78,38.2-76.49,88.33-91.7,144.97c-11.85,44.13-13.15,90.93-3.75,135.36l1.77,8.35l56.43-12.62l-1.7-8.14
			c-8.13-38.98-6.1-79.63,5.87-117.58c13.04-41.32,37.45-78.1,70.58-106.37c0.46-0.39,0.92-0.78,1.38-1.17
			c46.96-39.4,106.35-58.42,167.44-53.58c61.74,4.9,117.89,33.54,158.09,80.66c40.2,47.12,59.64,107.08,54.74,168.82
			c-3.2,40.33-16.53,78.27-38.53,110.93c-319.06-42.74-18.09-225.34-18.09-225.34S399.11,504.94,535.23,728.43z"/>
	</g>
</g>
</svg>
